<svg width="72" height="24" viewBox="0 0 72 24" fill="none" xmlns="http://www.w3.org/2000/svg">
<g clip-path="url(#clip0_3217_2939)">
<path d="M12.5723 13.144C11.8949 13.144 11.2327 13.3449 10.6695 13.7212C10.1063 14.0975 9.66737 14.6324 9.40816 15.2582C9.14894 15.884 9.08112 16.5726 9.21327 17.237C9.34542 17.9013 9.67159 18.5116 10.1506 18.9905C10.6295 19.4695 11.2398 19.7957 11.9041 19.9278C12.5685 20.06 13.2571 19.9921 13.8829 19.7329C14.5087 19.4737 15.0435 19.0347 15.4199 18.4715C15.7962 17.9083 15.997 17.2462 15.997 16.5688C15.997 15.6605 15.6362 14.7894 14.9939 14.1471C14.3517 13.5049 13.4806 13.144 12.5723 13.144V13.144ZM12.5723 17.7239C12.3444 17.7239 12.1217 17.6564 11.9323 17.5298C11.7428 17.4032 11.5952 17.2233 11.508 17.0128C11.4208 16.8023 11.398 16.5707 11.4424 16.3472C11.4869 16.1237 11.5966 15.9185 11.7577 15.7574C11.9188 15.5963 12.1241 15.4866 12.3475 15.4421C12.571 15.3977 12.8026 15.4205 13.0131 15.5077C13.2236 15.5949 13.4035 15.7425 13.5301 15.9319C13.6567 16.1214 13.7242 16.3441 13.7242 16.5719C13.7244 16.7233 13.6947 16.8731 13.6368 17.013C13.579 17.1528 13.4941 17.2798 13.3871 17.3868C13.2801 17.4938 13.1531 17.5787 13.0133 17.6365C12.8734 17.6944 12.7236 17.7241 12.5723 17.7239Z" fill="#002FDB"/>
<path d="M3.43016 4C2.52185 4 1.65074 4.36083 1.00847 5.0031C0.366196 5.64537 0.00537109 6.51648 0.00537109 7.42479C0.00537109 8.3331 0.366196 9.20421 1.00847 9.84648C1.65074 10.4888 2.52185 10.8496 3.43016 10.8496C4.33847 10.8496 5.20958 10.4888 5.85185 9.84648C6.49413 9.20421 6.85495 8.3331 6.85495 7.42479C6.85495 6.51648 6.49413 5.64537 5.85185 5.0031C5.20958 4.36083 4.33847 4 3.43016 4V4ZM3.43016 8.58092C3.12464 8.58092 2.83163 8.45955 2.61559 8.24351C2.39956 8.02747 2.27819 7.73447 2.27819 7.42894C2.27819 7.12342 2.39956 6.83041 2.61559 6.61437C2.83163 6.39834 3.12464 6.27697 3.43016 6.27697C3.58139 6.27697 3.73114 6.30677 3.87085 6.36468C4.01055 6.42258 4.13748 6.50745 4.24436 6.61444C4.35125 6.72142 4.43601 6.84842 4.49379 6.98818C4.55157 7.12794 4.58124 7.27771 4.5811 7.42894C4.58124 7.58017 4.55157 7.72995 4.49379 7.86971C4.43601 8.00946 4.35125 8.13646 4.24436 8.24345C4.13748 8.35043 4.01055 8.4353 3.87085 8.49321C3.73114 8.55111 3.58139 8.58092 3.43016 8.58092V8.58092Z" fill="#005CDC"/>
<path d="M13.0297 7.2347C12.9114 6.95344 12.7126 6.71338 12.4584 6.54464C12.2042 6.37589 11.9058 6.28596 11.6006 6.28613H7.99631V8.56933H9.64644C9.68069 8.56933 9.71493 8.61499 9.71493 8.64924C9.71573 8.65544 9.71512 8.66174 9.71314 8.66767C9.71117 8.6736 9.70788 8.67901 9.70352 8.68349C9.6921 8.6949 9.6921 8.70632 9.68069 8.71773L6.9585 11.4295H10.1934L12.6976 8.92634C12.9145 8.70911 13.0619 8.43228 13.1211 8.13105C13.1802 7.82982 13.1484 7.5178 13.0297 7.2347Z" fill="#005CDC"/>
<path d="M2.97555 16.7671C3.094 17.0483 3.29277 17.2883 3.54698 17.457C3.80118 17.6257 4.09952 17.7157 4.40463 17.7157H8.00481V15.4325H6.35883C6.32458 15.4325 6.29034 15.3868 6.29034 15.3526C6.28954 15.3464 6.29015 15.3401 6.29213 15.3341C6.2941 15.3282 6.29739 15.3228 6.30175 15.3183C6.31317 15.3069 6.31317 15.2955 6.32458 15.2841L9.0447 12.5723H5.81087L3.30765 15.0796C3.09158 15.2965 2.94468 15.5726 2.88557 15.873C2.82645 16.1734 2.85777 16.4845 2.97555 16.7671V16.7671Z" fill="#002FDB"/>
</g>
<path d="M20.3385 11.9551V15.3837C20.3385 15.4707 20.3893 15.5252 20.491 15.5469C20.8864 15.6014 21.2592 15.6286 21.6094 15.6286C22.547 15.6286 23.2305 15.4653 23.6598 15.1388C24.1003 14.8014 24.3206 14.2898 24.3206 13.6041C24.3206 12.9946 24.0665 12.5483 23.5581 12.2653C23.061 11.9714 22.2307 11.8245 21.0671 11.8245H20.474C20.3837 11.8245 20.3385 11.868 20.3385 11.9551ZM20.3385 7.18776V9.97959C20.3385 10.0776 20.3837 10.1265 20.474 10.1265H20.9654C22.0161 10.1265 22.773 9.99048 23.2361 9.71837C23.7106 9.43537 23.9478 9.02177 23.9478 8.47755C23.9478 7.9551 23.7558 7.56871 23.3717 7.31837C22.9876 7.06803 22.3606 6.94286 21.4908 6.94286C21.0954 6.94286 20.7565 6.96463 20.474 7.00816C20.3837 7.02993 20.3385 7.0898 20.3385 7.18776ZM18.9489 17.2776C18.6778 17.2558 18.4519 17.1469 18.2711 16.951C18.0904 16.7442 18 16.5048 18 16.2327V6.33878C18 6.06667 18.0904 5.83265 18.2711 5.63673C18.4519 5.42993 18.6835 5.31565 18.9659 5.29388C19.8019 5.2068 20.6096 5.16327 21.3891 5.16327C24.5522 5.16327 26.1338 6.15918 26.1338 8.15102C26.1338 8.81497 25.9022 9.39184 25.439 9.88163C24.9759 10.3714 24.3658 10.6871 23.6089 10.8286C23.5976 10.8286 23.592 10.834 23.592 10.8449C23.592 10.8667 23.5976 10.8776 23.6089 10.8776C24.5353 11.0082 25.2583 11.3401 25.7779 11.8735C26.3089 12.3959 26.5744 13.0435 26.5744 13.8163C26.5744 15.0136 26.1677 15.9116 25.3543 16.5102C24.5409 17.1088 23.2757 17.4082 21.5585 17.4082C20.7 17.4082 19.8301 17.3646 18.9489 17.2776Z" fill="url(#paint0_linear_3217_2939)"/>
<path d="M29.288 17.2449C29.0282 17.2449 28.8023 17.1524 28.6102 16.9673C28.4182 16.7823 28.3221 16.5646 28.3221 16.3143V9.68571C28.3221 9.43537 28.4182 9.21769 28.6102 9.03265C28.8023 8.84762 29.0282 8.7551 29.288 8.7551H29.6269C29.8868 8.7551 30.1127 8.84762 30.3048 9.03265C30.4968 9.21769 30.5928 9.43537 30.5928 9.68571V10.3714C30.5928 10.3823 30.5985 10.3878 30.6098 10.3878C30.6324 10.3878 30.6437 10.3823 30.6437 10.3714C30.9713 9.93605 31.4006 9.58231 31.9315 9.3102C32.4625 9.02721 33.0443 8.85306 33.6769 8.78776C33.9141 8.76599 34.1175 8.84218 34.2869 9.01633C34.4564 9.17959 34.5411 9.37551 34.5411 9.60408C34.5411 9.83265 34.4564 10.0286 34.2869 10.1918C34.1175 10.3551 33.9141 10.4476 33.6769 10.4694C31.6773 10.6218 30.6775 11.6014 30.6775 13.4082V16.3143C30.6775 16.5646 30.5815 16.7823 30.3895 16.9673C30.1974 17.1524 29.9715 17.2449 29.7117 17.2449H29.288Z" fill="url(#paint1_linear_3217_2939)"/>
<path d="M38.0209 17.2449C37.761 17.2449 37.5351 17.1524 37.3431 16.9673C37.151 16.7823 37.055 16.5646 37.055 16.3143V9.68571C37.055 9.43537 37.151 9.21769 37.3431 9.03265C37.5351 8.84762 37.761 8.7551 38.0209 8.7551H38.4614C38.7213 8.7551 38.9472 8.84762 39.1393 9.03265C39.3313 9.21769 39.4273 9.43537 39.4273 9.68571V16.3143C39.4273 16.5646 39.3313 16.7823 39.1393 16.9673C38.9472 17.1524 38.7213 17.2449 38.4614 17.2449H38.0209ZM38.0209 6.95918C37.761 6.95918 37.5351 6.86667 37.3431 6.68163C37.151 6.4966 37.055 6.27891 37.055 6.02857V5.93061C37.055 5.68027 37.151 5.46259 37.3431 5.27755C37.5351 5.09252 37.761 5 38.0209 5H38.4614C38.7213 5 38.9472 5.09252 39.1393 5.27755C39.3313 5.46259 39.4273 5.68027 39.4273 5.93061V6.02857C39.4273 6.27891 39.3313 6.4966 39.1393 6.68163C38.9472 6.86667 38.7213 6.95918 38.4614 6.95918H38.0209Z" fill="url(#paint2_linear_3217_2939)"/>
<path d="M45.9495 10.2245C44.6503 10.2245 44.0007 11.1497 44.0007 13C44.0007 13.9252 44.1758 14.6218 44.5261 15.0898C44.8763 15.5469 45.3507 15.7755 45.9495 15.7755C46.4804 15.7755 46.938 15.6068 47.322 15.2694C47.7061 14.932 47.8982 14.5456 47.8982 14.1102V11.8898C47.8982 11.4544 47.7061 11.068 47.322 10.7306C46.938 10.3932 46.4804 10.2245 45.9495 10.2245ZM45.2717 17.4082C44.2662 17.4082 43.4303 17.0163 42.7637 16.2327C42.0972 15.4381 41.764 14.3605 41.764 13C41.764 11.5959 42.0803 10.5129 42.7129 9.75102C43.3568 8.97823 44.2097 8.59184 45.2717 8.59184C46.2319 8.59184 47.0792 8.92925 47.8135 9.60408C47.8248 9.61497 47.8361 9.62041 47.8474 9.62041C47.8586 9.62041 47.8643 9.61497 47.8643 9.60408V5.93061C47.8643 5.68027 47.9603 5.46259 48.1524 5.27755C48.3444 5.09252 48.5704 5 48.8302 5H49.1691C49.4289 5 49.6549 5.09252 49.8469 5.27755C50.039 5.46259 50.135 5.68027 50.135 5.93061V16.3143C50.135 16.5646 50.039 16.7823 49.8469 16.9673C49.6549 17.1524 49.4289 17.2449 49.1691 17.2449H48.9827C48.7116 17.2449 48.48 17.1578 48.2879 16.9837C48.1072 16.7986 48.0112 16.5755 47.9999 16.3143L47.9829 16.2C47.9829 16.1891 47.9773 16.1837 47.966 16.1837C47.9547 16.1837 47.9434 16.1891 47.9321 16.2C47.1865 17.0054 46.2997 17.4082 45.2717 17.4082Z" fill="url(#paint3_linear_3217_2939)"/>
<path d="M56.1578 10.2245C54.9151 10.2245 54.2938 11.0952 54.2938 12.8367C54.2938 13.7401 54.4576 14.415 54.7852 14.8612C55.1241 15.3075 55.5816 15.5306 56.1578 15.5306C56.6661 15.5306 57.101 15.3565 57.4625 15.0082C57.8353 14.6599 58.0217 14.2517 58.0217 13.7837V12.0204C58.0217 11.5197 57.8353 11.0952 57.4625 10.7469C57.101 10.3986 56.6661 10.2245 56.1578 10.2245ZM55.446 17.1633C54.4519 17.1633 53.6385 16.7823 53.0059 16.0204C52.3733 15.2476 52.057 14.1864 52.057 12.8367C52.057 11.4871 52.3563 10.4422 52.9551 9.70204C53.5651 8.9619 54.3954 8.59184 55.446 8.59184C55.977 8.59184 56.4458 8.68435 56.8525 8.86939C57.2592 9.05442 57.6602 9.36463 58.0556 9.8C58.0669 9.81088 58.0782 9.81633 58.0895 9.81633C58.1008 9.81633 58.1065 9.81088 58.1065 9.8V9.68571C58.1178 9.42449 58.2194 9.2068 58.4115 9.03265C58.6035 8.84762 58.8351 8.7551 59.1063 8.7551H59.2927C59.5525 8.7551 59.7728 8.84762 59.9535 9.03265C60.1456 9.21769 60.2416 9.43537 60.2416 9.68571V16.5918C60.2416 19.5306 58.7165 21 55.6663 21C55.1241 21 54.5536 20.9565 53.9548 20.8694C53.6837 20.8259 53.4578 20.6952 53.277 20.4775C53.1076 20.2707 53.0229 20.0313 53.0229 19.7592C53.0229 19.5415 53.1132 19.3673 53.294 19.2367C53.486 19.117 53.695 19.0844 53.921 19.1388C54.4632 19.2694 55.0281 19.3347 55.6155 19.3347C56.4515 19.3347 57.0615 19.1224 57.4456 18.698C57.8297 18.2844 58.0217 17.5986 58.0217 16.6408V16.1347C58.0217 16.1238 58.0161 16.1184 58.0048 16.1184C57.9935 16.1184 57.9822 16.1238 57.9709 16.1347C57.2931 16.8204 56.4515 17.1633 55.446 17.1633Z" fill="url(#paint4_linear_3217_2939)"/>
<path d="M66.1694 10.1102C65.5933 10.1102 65.1471 10.268 64.8308 10.5837C64.5257 10.8884 64.3337 11.3837 64.2546 12.0694C64.2546 12.1565 64.2998 12.2 64.3902 12.2H67.7115C67.8019 12.2 67.847 12.1565 67.847 12.0694C67.8019 10.7633 67.2427 10.1102 66.1694 10.1102ZM66.5931 17.4082C65.1132 17.4082 63.9722 17.0381 63.1701 16.298C62.3793 15.5469 61.9839 14.4476 61.9839 13C61.9839 11.5633 62.3398 10.4694 63.0515 9.71837C63.7632 8.96735 64.7912 8.59184 66.1356 8.59184C68.6435 8.59184 69.9313 9.96326 69.9991 12.7061C70.0104 12.9673 69.9144 13.185 69.711 13.3592C69.5077 13.5333 69.2705 13.6204 68.9993 13.6204H64.3732C64.2716 13.6204 64.232 13.6694 64.2546 13.7673C64.3337 14.4966 64.5822 15.0299 65.0002 15.3673C65.4295 15.6939 66.0508 15.8571 66.8642 15.8571C67.3726 15.8571 67.9374 15.7755 68.5588 15.6122C68.7621 15.5578 68.9485 15.5905 69.1179 15.7102C69.2987 15.8299 69.3891 15.9932 69.3891 16.2C69.3891 16.4503 69.31 16.6735 69.1518 16.8694C69.005 17.0544 68.8073 17.1687 68.5588 17.2122C67.9261 17.3429 67.2709 17.4082 66.5931 17.4082Z" fill="url(#paint5_linear_3217_2939)"/>
<defs>
<linearGradient id="paint0_linear_3217_2939" x1="33.3833" y1="9.5875" x2="36.1947" y2="23.7377" gradientUnits="userSpaceOnUse">
<stop stop-color="#19113E"/>
<stop offset="1" stop-color="#041D75"/>
</linearGradient>
<linearGradient id="paint1_linear_3217_2939" x1="33.3833" y1="9.5875" x2="36.1947" y2="23.7377" gradientUnits="userSpaceOnUse">
<stop stop-color="#19113E"/>
<stop offset="1" stop-color="#041D75"/>
</linearGradient>
<linearGradient id="paint2_linear_3217_2939" x1="33.3833" y1="9.5875" x2="36.1947" y2="23.7377" gradientUnits="userSpaceOnUse">
<stop stop-color="#19113E"/>
<stop offset="1" stop-color="#041D75"/>
</linearGradient>
<linearGradient id="paint3_linear_3217_2939" x1="33.3833" y1="9.5875" x2="36.1947" y2="23.7377" gradientUnits="userSpaceOnUse">
<stop stop-color="#19113E"/>
<stop offset="1" stop-color="#041D75"/>
</linearGradient>
<linearGradient id="paint4_linear_3217_2939" x1="33.3833" y1="9.5875" x2="36.1947" y2="23.7377" gradientUnits="userSpaceOnUse">
<stop stop-color="#19113E"/>
<stop offset="1" stop-color="#041D75"/>
</linearGradient>
<linearGradient id="paint5_linear_3217_2939" x1="33.3833" y1="9.5875" x2="36.1947" y2="23.7377" gradientUnits="userSpaceOnUse">
<stop stop-color="#19113E"/>
<stop offset="1" stop-color="#041D75"/>
</linearGradient>
<clipPath id="clip0_3217_2939">
<rect width="16" height="16" fill="white" transform="translate(0 4)"/>
</clipPath>
</defs>
</svg>
